<?xml version="1.0" encoding="UTF-8"?>
<svg width="56px" height="56px" viewBox="0 0 56 56" version="1.1" xmlns="http://www.w3.org/2000/svg" xmlns:xlink="http://www.w3.org/1999/xlink">
    <!-- Generator: Sketch 45.1 (43504) - http://www.bohemiancoding.com/sketch -->
    <title>female</title>
    <desc>Created with Sketch.</desc>
    <defs>
        <circle id="path-1" cx="27" cy="27" r="27"></circle>
    </defs>
    <g id="Page-1" stroke="none" stroke-width="1" fill="none" fill-rule="evenodd">
        <g id="Team" transform="translate(-16.000000, -134.000000)">
            <g id="female" transform="translate(17.000000, 135.000000)">
                <mask id="mask-2" fill="white">
                    <use xlink:href="#path-1"></use>
                </mask>
                <use id="Mask" stroke="#4A4A4A" fill="#F5F5F5" xlink:href="#path-1"></use>
                <g mask="url(#mask-2)" id="path2641" fill-rule="nonzero" fill="#4A4A4A">
                    <g transform="translate(5.102362, 7.653543)">
                        <path d="M0.263489834,44.8361502 C0.263489834,42.7010488 1.01872755,39.1496895 1.70718136,38.0474755 C2.88258137,36.165658 5.96575733,33.6216616 8.48037699,32.4587583 C9.87865238,31.8121186 11.0226939,31.1488166 11.0226939,30.9847496 C11.0226939,30.8206857 10.7693946,30.4387367 10.4598062,30.1359764 C10.0918045,29.7760901 9.77010123,28.7267773 9.53064131,27.1052964 C9.22001694,25.0019136 9.23580223,24.4224312 9.63454141,23.2911696 C9.97311819,22.3305998 10.0266191,21.674132 9.8256925,20.9457188 C9.67223244,20.3893792 9.62596171,19.8548223 9.72287447,19.7578142 C9.81978724,19.6608092 9.94343816,18.2890335 9.99765532,16.7094255 C10.1248783,13.0028797 11.8345005,7.83250726 13.7902287,5.23961295 C15.0945301,3.51038184 18.1471776,1.31393575 20.2666947,0.579660796 C21.5908207,0.120935495 23.2115626,0.0842382097 23.4726301,0.507069343 C23.5771235,0.676308879 24.3200311,0.81477759 25.1235408,0.81477759 C26.1443433,0.81477759 26.7639905,0.990795939 27.1803871,1.39905401 C28.5400646,2.73215691 31.3114788,6.41306758 31.3114788,6.885849 C31.3114788,6.99435308 31.5707049,7.36899402 31.8875389,7.71838135 C32.7388347,8.6571469 34.0781312,11.2098853 34.0781312,11.8937176 C34.0781312,12.2209807 34.3587067,13.0275671 34.7016333,13.6861336 C35.2130367,14.668246 35.2653356,15.0409699 34.9925283,15.7592194 C34.8095911,16.2408505 34.6928077,16.987123 34.7330102,17.4176038 C34.7732127,17.8480815 34.4898091,18.8110667 34.1032309,19.5575639 C33.4773127,20.7662295 33.4241715,21.1692166 33.6178586,23.2381914 C33.7374856,24.5160361 33.9586826,25.8862271 34.1094098,26.2830568 C34.3903357,27.0226767 33.7636582,28.7216939 33.037667,29.188712 C32.5971422,29.4720959 33.561711,30.2136974 35.0003487,30.6977071 C35.592105,30.8967943 36.406174,31.3164837 36.809389,31.6303523 C37.212604,31.9442178 37.7041921,32.2010188 37.9018018,32.2010188 C38.0994145,32.2010188 38.97838,32.5588065 39.8550615,32.9961061 C41.8602789,33.9963302 43.7324389,36.0929835 44.1567388,37.8136018 C44.7266815,40.1248415 45.1186947,42.4547622 45.2962523,44.5862757 L45.4692695,46.6633064 L22.8663797,46.6633064 L0.263489834,46.6633064 L0.263489834,44.8361502 Z"></path>
                    </g>
                </g>
            </g>
        </g>
    </g>
</svg>