<svg xmlns="http://www.w3.org/2000/svg" style="display: none;">

    <symbol id="icon-close" viewBox="0 0 512 512">
      <path d="m256 285l221 221c4 4 9 6 14 6 6 0 11-2 15-6 8-8 8-21 0-29l-221-221 221-221c8-8 8-21 0-29-8-8-21-8-29 0l-221 221-221-221c-8-8-21-8-29 0-8 8-8 21 0 29l221 221-221 221c-8 8-8 21 0 29 4 4 9 6 15 6 5 0 10-2 14-6z"/>
    </symbol>

    <symbol id="icon-show" viewBox="0 0 512 512">
      <path d="m512 255c0 0 0 0 0-1 0 0 0 0 0 0 0 0 0 0 0 0 0-1 0-1 0-1l0 0c-1-4-3-8-6-10-16-20-35-37-55-53-43-33-91-62-145-73-31-7-62-7-94-1-28 5-55 15-81 28-40 21-77 49-108 80-6 6-12 12-18 19-7 8-7 18 0 26 17 20 36 37 56 53 42 33 91 62 145 73 31 7 62 7 93 1 29-5 56-15 82-28 40-21 76-49 108-80 6-6 12-12 17-19 3-2 5-6 6-10l0 0c0 0 0 0 0-1 0 0 0 0 0 0 0 0 0 0 0 0 0-1 0-1 0-1 0 0 0-1 0-1 0 0 0-1 0-1z m-256 99c-54 0-99-44-99-98 0-54 45-98 99-98 54 0 99 44 99 98 0 54-45 98-99 98z m33-98c0 43-66 43-66 0 0-43 66-43 66 0"/>
    </symbol>

    <symbol id="icon-hamburger" viewBox="0 0 512 512">
      <path d="m37 74l438 0c20 0 37 20 37 36 0 19-17 35-37 35l-438 0c-20 0-37-19-37-35 0-20 17-36 37-36z m0 156l438 0c20 0 37 20 37 36 0 20-17 36-37 36l-438 0c-20 0-37-20-37-36 0-20 17-36 37-36z m0 156l438 0c20 0 37 20 37 36 0 20-17 36-37 36l-438 0c-20 0-37-20-37-36 0-20 17-36 37-36z"/>
    </symbol>

    <symbol id="icon-cog" viewBox="0 0 512 512">
      <path d="m223 0c-9 1-15 6-18 13l-14 50c-9 3-17 6-26 10l-45-25c-7-4-16-2-22 3l-47 47c-5 6-6 15-2 22l24 45c-4 8-7 17-10 26l-50 14c-7 2-13 10-13 18l0 66c0 8 6 16 13 18l50 14c3 9 6 17 10 26l-24 45c-4 7-3 16 2 21l47 47c6 6 15 7 22 3l45-24c8 4 17 7 26 10l14 50c2 7 10 13 18 13l66 0c8 0 16-6 18-13l14-50c9-3 18-6 26-10l45 24c7 4 16 3 22-3l47-47c5-5 6-14 2-21l-24-45c4-9 7-17 10-26l50-14c7-2 13-10 13-18l0-66c0-8-6-16-13-18l-50-14c-3-9-6-18-10-26l24-45c4-7 3-16-2-22l-47-47c-6-5-15-7-22-3l-45 25c-9-4-17-7-26-10l-14-50c-2-7-10-13-18-13z m14 37l38 0 13 44c2 6 7 11 13 12 13 4 26 10 38 16 6 4 13 4 18 0l40-22 28 27-23 41c-3 5-3 12 1 18 6 12 12 25 15 38 2 6 7 11 13 13l44 13 0 38-44 13c-6 2-11 7-13 13-3 13-9 26-15 38-4 5-4 12-1 18l23 40-28 28-40-23c-5-3-12-3-18 0-12 7-25 13-38 16-6 2-11 7-13 13l-13 44-38 0-13-44c-2-6-7-11-13-13-13-3-26-9-38-16-6-3-13-3-18 0l-40 23-28-28 23-40c3-6 3-13-1-18-6-12-12-25-15-38-2-6-7-11-13-13l-44-13 0-38 44-13c6-2 11-7 13-13 3-13 9-26 15-38 4-6 4-13 1-18l-23-41 28-27 40 22c5 4 12 4 18 0 12-6 25-12 38-16 6-1 11-6 13-12z m19 109c-60 0-110 50-110 110 0 60 50 110 110 110 60 0 110-50 110-110 0-60-50-110-110-110z m0 37c41 0 73 32 73 73 0 41-32 73-73 73-41 0-73-32-73-73 0-41 32-73 73-73z"/>
    </symbol>

    <symbol id="icon-calendar" viewBox="0 0 512 512">
      <path d="m410 85l0-62-31 0 0 62-248 0 0-62-31 0 0 62-94 0 0 404 498 0 0-404z m-310 31l0 31 31 0 0-31 248 0 0 31 31 0 0-31 63 0 0 62-436 0 0-62z m-63 342l0-249 436 0 0 249z m140-171l62 0 0-31-62 0z m94 0l62 0 0-31-62 0z m93 0l62 0 0-31-62 0z m-187 62l62 0 0-31-62 0z m-93 0l62 0 0-31-62 0z m187 0l62 0 0-31-62 0z m93 0l62 0 0-31-62 0z m-187 62l62 0 0-31-62 0z m-93 0l62 0 0-31-62 0z m187 0l62 0 0-31-62 0z m93 0l62 0 0-31-62 0z"/>
    </symbol>

    <symbol id="icon-doc" viewBox="0 0 512 512">
      <path d="m221 0l236 0 0 512-402 0 0-343z m-15 87l-66 67 66 0z m201 374l0-410-151 0 0 154-151 0 0 256z m-242-132l0-36 146 0 0 36z"/>
    </symbol>

    <symbol id="icon-logout" viewBox="0 0 512 512">
      <path d="m490 240c0 1 0 1 0 1 0 2 0 3 0 4l0 4c0 1 0 1-1 3-1 2-2 5-4 6l-115 147c-3 5-8 8-15 9-6 1-12 0-17-3-6-3-9-8-11-13-1-6 0-11 4-16l91-116-303 0c-7 0-12-2-17-6-5-4-7-9-7-15 0-6 2-10 7-14 5-4 10-7 17-7l303 0-91-115c-4-5-5-10-4-16 2-6 5-10 11-13 5-3 11-4 17-3 7 1 12 4 15 9l115 146c2 2 2 3 3 4 1 2 1 3 2 4z m-442-192l0 395c0 6-3 10-7 15-5 4-11 5-17 5-7 0-12-1-17-5-5-4-7-9-7-15l0-395c0-6 3-11 7-15 5-4 10-6 17-6 6 0 12 2 17 6 4 4 7 9 7 15z"/>
    </symbol>

    <symbol id="icon-message" viewBox="0 0 512 512">
      <path d="m512 435l0-374-512 0 0 390 512 0z m-242-155c-8 8-22 8-29 0l-191-190c0 0-1 0-1 0l412 0z m-95-24l-146 146 0-292c0 0 0 0 0 0z m21 20l24 25c9 9 22 14 35 14 14 0 26-5 35-14l26-26c1 0 1 0 1 1l147 146-415 0z m141-21c0 0 0 0 0 0l146-146c0 0 0 0 0 0l0 291z m-307-165c0 0-1 0-1 0 0 0 0 0 0 1l0-1z"/>
    </symbol>

    <symbol id="icon-bell" viewBox="0 0 512 512">
      <path d="m339 81c1-3 5-5 8-4 55 26 92 81 95 141 0 4-3 7-6 7l-18 0c-3 0-5-3-6-6-2-49-32-94-77-114-3-2-4-5-3-8z m22-55c2-3 5-5 8-3 78 34 129 110 132 195 0 3-2 6-6 6l-17 0c-4 0-6-2-6-5-3-73-47-139-114-169-3-1-4-5-3-8z m-199 55l7 16c1 3 0 6-3 8-45 20-75 65-77 114 0 3-3 6-6 6l-18 0c-3 0-6-3-6-7 3-60 40-115 95-141 3-1 7 1 8 4z m-22-55l6 16c2 3 0 7-3 8-66 30-111 96-113 169-1 3-3 5-6 5l-18 0c-3 0-6-3-6-6 3-85 54-161 132-195 3-2 6 0 8 3z m282 319c3 3 5 7 5 11l0 46c0 8-7 14-15 14l-100 0c0 33-29 62-61 62-33 0-62-29-62-62l-99 0c-9 0-15-6-15-14l0-46c0-4 1-8 4-11l32-32 0-60c0-60 35-112 88-132 5-24 26-42 52-42 25 0 46 18 51 42 53 20 89 72 89 132l0 60z m-171 103c17 0 32-16 32-32l-64 0c0 16 14 32 32 32z m146-61l0-25-36-37 0-72c0-55-36-99-87-110l0-11c0-12-11-24-23-24-13 0-23 12-23 24l0 11c-52 11-88 55-88 110l0 72-36 37 0 25z"/>
    </symbol>

    <symbol id="icon-chevron-up" viewBox="0 0 512 512">
      <path d="m258 207l-188 185c-17 16-42 16-58-1-16-16-16-41 0-57l215-215c16-16 42-16 58 0l215 215c16 16 16 41 0 57-16 17-42 17-58 0z"/>
    </symbol>

    <symbol id="icon-arrow-right" viewBox="0 0 512 512">
      <path d="m0 256c0-141 115-256 256-256 141 0 256 115 256 256 0 141-115 256-256 256-141 0-256-115-256-256z m47 0c0 116 94 209 209 209 115 0 209-93 209-209 0-116-94-209-209-209-115 0-209 93-209 209z m161-101c4-4 9-6 14-6 5 0 10 2 14 6l89 87c8 8 8 20 0 28l-89 87c-8 8-20 8-28 0-7-7-7-20 0-27l76-74-76-74c-7-7-7-20 0-27z"/>
    </symbol>

    <symbol id="icon-loader" viewBox="0 0 512 512">
      <path d="m450 257c0-105-86-191-191-191-106 0-192 86-192 191l42 0c0-82 67-149 150-149 82 0 149 67 149 149z"/>
    </symbol>

    <symbol id="icon-download" viewBox="0 0 512 512">
      <path d="m247 353c3 3 8 3 11 0l60-61c3-3 3-8 0-11-1-1-3-2-5-2-2 0-4 1-5 2l-48 48 0-134c0-4-3-8-8-8-5 0-8 4-8 8l0 134-48-48c-1-1-3-2-5-2-2 0-4 1-5 2-3 3-3 8 0 11z m-85 65l182 0c4 0 8-4 8-8 0-4-4-8-8-8l-182 0c-4 0-8 4-8 8 0 4 4 8 8 8z m250-400l-220 0c-11 0-22 4-30 13l-87 87c-8 8-12 20-12 31l0 315c0 17 14 31 31 31l318 0c17 0 31-14 31-31l0-415c0-18-14-31-31-31z m16 446c0 8-7 15-16 15l-318 0c-9 0-16-7-16-15l0-316c0-7 3-14 8-19l87-88c5-5 12-8 19-8l220 0c9 0 16 7 16 15z m-258-307c17 0 30-14 30-32l0-54c0-4-3-8-8-8-5 0-8 4-8 8l0 54c0 9-7 16-15 16l-54 0c-4 0-8 4-8 8 0 4 3 8 8 8z"/>
    </symbol>

    <symbol id="icon-info" viewBox="0 0 512 512">
      <path d="m256 0c-141 0-256 115-256 256 0 141 115 256 256 256 141 0 256-115 256-256 0-141-115-256-256-256z m0 465c-115 0-209-94-209-209 0-116 94-209 209-209 115 0 209 93 209 209 0 115-94 209-209 209z m28-131l0-120-18 0c-1 1-3 3-6 4-3 1-6 2-10 3-5 1-10 2-16 3-6 0-13 1-21 1l0 25 24-1c0 5-1 11-1 16 0 5 0 10 0 14l0 57c0 4 0 9 0 12-1 4-2 7-3 10-1 3-3 5-6 6-3 1-7 2-11 2l0 22 89 0 0-26-22 1c0-2 0-5 1-8 0-3 0-5 0-8 0-3 0-5 0-7 0-3 0-5 0-6z m5-178c0-4 0-7-2-11-1-3-3-6-5-9-2-2-5-4-8-6-3-1-7-2-10-2-4 0-7 1-10 2-4 2-6 4-9 6-2 3-4 6-5 9-2 4-2 7-2 11 0 4 0 8 1 11 2 3 4 6 6 9 2 2 5 4 8 6 4 1 7 2 11 2 4 0 7-1 10-2 4-2 6-4 8-6 3-3 4-6 6-9 1-3 1-7 1-11z"/>
    </symbol>

    <symbol id="icon-back-arrow" viewBox="0 0 512 512">
      <path d="m482 234l-401 0 193-191c8-8 8-21 0-29-8-8-22-8-30 0l-228 226c-4 4-6 10-6 16 0 6 2 12 6 16l228 226c4 4 10 6 14 6 4 0 10-2 14-6 8-8 8-21 0-29l-191-193 401 0c12 0 20-10 20-20 0-12-10-22-20-22z"/>
    </symbol>

    <symbol id="icon-chevron-down" viewBox="0 0 512 512">
      <path d="m258 300l170-171c15-15 38-15 53 0 15 15 15 39 0 53l-198 199c-15 15-39 15-54 0l-198-199c-15-14-15-38 0-53 15-15 38-15 53 0z"/>
    </symbol>

    <symbol id="icon-tick" viewBox="0 0 512 512">
      <path d="m49 207l138 138 276-275 49 48-325 324-187-186z"/>
    </symbol>

    <symbol id="icon-forward-arrow" viewBox="0 0 512 512">
      <path d="m26 282c-14 0-26-12-26-26 0-15 12-26 26-26l397 0-188-186c-11-10-11-26 0-36 10-11 26-11 36 0l233 229c11 10 11 27 0 37l-233 230c-10 11-26 11-36 0-11-10-11-26 0-36l188-186z"/>
    </symbol>

    <symbol id="icon-edit" viewBox="0 0 512 512">
      <path d="m496 73l-57-56c-10-12-24-17-38-17-14 0-28 5-39 16l-346 345c-10 11-16 24-16 38l0 85c0 16 13 28 28 28l84 0c14 0 29-6 39-16l345-346c21-21 21-56 0-77z m-371 397c-3 3-8 5-12 5l-76 0 0-76c0-4 2-9 5-12l261-260 82 82z m345-346l-59 59-82-82 59-59c5-4 10-5 13-5 3 0 8 1 12 5l57 57c7 7 7 18 0 25z"/>
    </symbol>

    <symbol id="icon-trash" viewBox="0 0 512 512">
      <path d="m225 407c0 9-8 16-17 16-10 0-17-7-17-16l0-270c0-10 7-17 17-17 9 0 17 7 17 17z m96 0c0 9-7 16-17 16-9 0-17-7-17-16l0-270c0-10 8-17 17-17 10 0 17 7 17 17z m101-287c9 0 17 7 17 17l0 323c0 28-29 52-59 52l-254 0c-29 0-53-23-53-52l0-323c0-10 8-17 17-17 9 0 17 7 17 17l0 323c0 10 9 18 19 18l254 0c12 0 25-9 25-18l0-323c0-10 8-17 17-17z m41-44c9 0 17 7 17 17 0 9-8 16-17 16l-414 0c-9 0-17-7-17-16 0-10 8-17 17-17l100 0 0-59c0-9 8-17 17-17l180 0c9 0 17 8 17 17l0 59z m-134-42l-146 0 0 42 146 0z"/>
    </symbol>

    <symbol id="icon-flag" viewBox="0 0 512 512">
      <path d="m348 152l95-116c5-6 6-15 3-23-3-8-11-13-19-13l-363 0 0 512 41 0 0-210 322 0c8 0 16-5 19-13 3-8 3-16-3-23z"/>
    </symbol>

    <symbol id="icon-up-arrow" viewBox="0 0 512 512">
      <path d="m230 486c0 14 11 26 26 26 14 0 26-12 26-26l0-397 186 188c10 11 26 11 36 0 11-10 11-26 0-36l-230-233c-10-11-27-11-37 0l-229 233c-11 10-11 26 0 36 10 11 26 11 36 0l186-188z"/>
    </symbol>

    <symbol id="icon-down-arrow" viewBox="0 0 512 512">
      <path d="m230 26c0-14 11-26 26-26 14 0 26 12 26 26l0 397 186-188c10-11 26-11 36 0 11 10 11 26 0 36l-230 233c-10 11-27 11-37 0l-229-233c-11-10-11-26 0-36 10-11 26-11 36 0l186 188z"/>
    </symbol>

    <symbol id="icon-link" viewBox="0 0 512 512">
      <path d="m221 370l-103 0c-31 0-61-12-83-34-23-21-35-50-35-80 0-30 12-59 35-80 22-22 52-34 83-34l103 0 0 42-103 0c-19 0-38 8-52 21-14 14-22 32-22 51 0 19 8 37 22 51 14 13 33 21 52 21l103 0z m256-34c-21 21-51 34-83 34l-103 0 0-42 103 0c41 0 74-33 74-72 0-39-33-72-74-72l-103 0 0-42 103 0c65 0 118 51 118 114 0 31-13 60-35 80z m-343-101l243 0 0 42-243 0z"/>
    </symbol>

    <symbol id="icon-link-alt" viewBox="0 0 512 512">
      <path d="m170 468l91-90 18 18-91 90c-16 17-39 26-63 26-24 0-46-9-63-26l-36-36c-17-17-26-39-26-63 0-24 9-47 26-63l135-136c35-34 92-34 127 0l36 36c7 8 13 16 17 25l-23 11c-3-6-7-12-12-18l-36-36c-25-24-66-24-91 0l-135 136c-12 12-18 28-18 45 0 17 6 33 18 45l36 36c12 12 28 19 45 19 17 0 33-7 45-19z m316-406l0 0c17 17 26 39 26 63 0 24-9 47-26 63l-135 136c-18 17-41 26-63 26-23 0-46-9-64-26l-36-36c-7-8-13-16-17-25l23-11c3 6 7 12 12 18l36 36c25 24 66 24 91 0l135-136c12-12 19-28 19-45 0-17-7-33-19-45l-36-36c-12-12-28-19-45-19-17 0-33 7-45 19l-91 90-18-18 91-90c16-17 39-26 63-26 24 0 46 9 63 26z"/>
    </symbol>

    <symbol id="icon-cap-alt" viewBox="0 0 512 512">
      <path d="m250 86c4-1 8-1 12 0l239 88c15 6 15 27 0 32l-239 88c-4 1-8 1-12 0l-239-88c-15-5-15-26 0-32z m-184 104l190 70 190-70-190-70z m195 104c-3 1-7 1-10 0l-109-36 0 99c1 0 2 1 3 1 7 5 16 10 26 14 27 13 56 21 85 21 29 0 58-8 85-21 10-4 19-9 26-14 1 0 2-1 3-1l0-99z m120-76c11-4 22 4 22 16l0 132c0 5-2 10-7 13-8 7-22 15-41 24-31 15-65 24-99 24-34 0-68-9-99-24-19-9-33-17-41-24-5-3-7-8-7-13l0-132c0-12 11-20 22-16l125 42z m131 192l-33 0 0-220 33 0z m-33 0l0-220c0-22 33-22 33 0l0 220c0 22-33 22-33 0z"/>
    </symbol>

    <symbol id="icon-doc-alt" viewBox="0 0 512 512">
      <path d="m33 61l133 0c19 0 33 15 33 33l0 19 210 2c8 0 15 6 15 14 0 8-7 14-14 14l-225-2c-8 0-14-6-14-14l0-33c0-2-2-4-5-4l-132 0c-3 0-5 2-5 5l0 289c0 3 0 3 1 0l64-202c2-6 8-10 14-10l390 0c4 0 9 3 11 6 3 4 4 9 2 13l-79 250c-2 6-8 10-14 10l-404 0c-8 0-14-6-14-14l0-343c0-18 15-33 33-33z m83 145l-65 212c-1 3 0 5 3 5l350 0c2 0 5-2 6-5l66-212c0-2-1-4-4-4l-349 0c-3 0-6 2-7 4z"/>
    </symbol>

</svg>
