<?xml version="1.0" encoding="UTF-8"?>
<svg width="56px" height="56px" viewBox="0 0 56 56" version="1.1" xmlns="http://www.w3.org/2000/svg" xmlns:xlink="http://www.w3.org/1999/xlink">
    <!-- Generator: Sketch 45.1 (43504) - http://www.bohemiancoding.com/sketch -->
    <title>Male</title>
    <desc>Created with Sketch.</desc>
    <defs>
        <circle id="path-1" cx="27" cy="27" r="27"></circle>
    </defs>
    <g id="Page-1" stroke="none" stroke-width="1" fill="none" fill-rule="evenodd">
        <g id="Team" transform="translate(-17.000000, -207.000000)">
            <g id="Male" transform="translate(18.000000, 208.000000)">
                <mask id="mask-2" fill="white">
                    <use xlink:href="#path-1"></use>
                </mask>
                <use id="Mask" stroke="#4A4A4A" fill="#F5F5F5" xlink:href="#path-1"></use>
                <path d="M3.4015748,54.1889579 L49.9825232,54.1889579 C49.9825232,54.1889579 50.373689,47.4885188 50.0355767,46.0383317 C49.6974645,44.5881446 49.8010487,44.1638782 49.1980158,42.867119 C48.5949828,41.5703599 48.3544448,41.1217427 47.3910891,40.4657241 C46.4277334,39.8097054 36.1438885,36.0081494 35.6639921,35.8046864 C35.1840958,35.6012234 34.9045607,35.1717751 34.9045607,35.1717751 C34.9045607,35.1717751 34.0467953,34.1742281 33.7182146,33.8818089 C33.3896339,33.5893897 33.213274,33.682133 33.0101787,33.4858766 C32.6900963,32.6173333 32.9480067,31.240948 32.9480067,31.240948 C32.9480067,31.240948 33.9149891,29.5338075 34.3094707,27.2471199 C34.3914,27.0740605 34.3025281,27.5202624 34.7094441,27.5202624 C35.1163601,27.5202624 35.1163601,27.3230734 35.1163601,27.3230734 C35.1163601,27.3230734 35.6639921,26.7232169 35.8157955,25.8768482 C36.0497563,25.2832977 36.1130815,24.6598306 36.1130815,24.6598306 C36.1130815,24.6598306 36.1718216,23.9284845 36.3552416,23.2800258 C36.5386615,22.6315671 36.7003225,22.384164 36.753868,22.0192805 C36.8074134,21.6543971 36.6960244,21.5094588 36.595951,21.3312433 C36.4958776,21.1530278 36.3852308,21.1317717 36.2063396,21.0972692 C36.0274483,21.0627667 35.7648145,21.1178896 35.7648145,21.1178896 C35.7648145,21.1178896 36.1132955,20.4955988 36.2545229,19.092221 C36.3957503,17.6888432 36.3552416,18.205026 36.2533831,16.2629788 C35.6639921,14.2574125 35.7648145,14.1363843 34.7028124,12.2729847 C33.6408104,10.4095851 31.951907,9.61430111 31.1524782,9.40840805 C28.0075057,8.2630955 24.7752851,8.44049305 24.7752851,8.44049305 C24.7752851,8.44049305 25.5697401,8.16641798 27.8589146,8.2630955 C24.7752851,7.92166739 24.8043418,8.14494577 23.974302,8.21947145 C23.1442622,8.29399713 22.4924315,8.74492879 22.4924315,8.74492879 L22.9568566,8.17791981 C22.9568566,8.17791981 22.2721353,8.44049305 21.5047251,9.00812375 C20.9520706,9.41690596 20.7982435,10.2352961 20.7982435,10.2352961 C20.7982435,10.2352961 19.9746517,10.3037732 19.2909861,10.6456316 C18.5929817,10.9946599 18.0349037,11.6170697 18.0349037,11.6170697 L18.7714351,11.324343 C18.7714351,11.324343 18.134741,11.7091013 17.8588532,12.2749535 C17.536646,12.9358074 17.5752451,13.7777552 17.5752451,13.7777552 L17.9406094,13.2188286 C17.9406094,13.2188286 17.4704852,14.0965942 17.4151521,15.6501698 C17.3785019,16.6791892 17.3225639,16.7006885 17.4704852,17.7230891 C17.7207758,19.4530446 18.2115759,21.154882 18.2115759,21.154882 L17.61918,21.1825485 C17.61918,21.1825485 17.4151521,21.3312433 17.2630378,21.6412745 C17.1109236,21.9513058 17.1517499,22.3924164 17.2630378,23.0207684 C17.3743258,23.6491205 17.4982258,23.7580534 17.7250797,24.4785991 C17.9519336,25.1991448 18.3347801,26.4248947 18.3347801,26.4248947 L18.6390086,27.0274454 C18.6390086,27.0274454 18.9144604,27.4162353 19.0305888,27.487104 C19.1467173,27.5579727 19.3605435,27.5848201 19.4791601,27.5401575 C19.5977767,27.4954949 19.6151096,27.267015 19.6151096,27.267015 C19.6151096,27.267015 20.0005762,29.4498752 20.900931,31.0657265 C21.0514909,33.0808258 20.8282933,33.9245004 20.8282933,33.9245004 C20.8282933,33.9245004 20.2552744,34.1333984 19.6839133,34.5824878 C18.9134982,35.1717751 19.0305888,35.4175619 18.2283623,35.9434337 C13.0495182,38.280758 12.8866445,38.1215274 7.51964333,40.0724859 C6.33054387,40.5905544 5.37626234,41.5428546 5.37626234,41.5428546 C5.37626234,41.5428546 4.80054927,41.8913289 4.35197802,42.9716717 C3.90340677,44.0520144 3.72062098,45.5817574 3.72062098,45.5817574 L3.52363924,47.1314991 C3.52363924,47.1314991 3.52363924,51.5886124 3.4015748,54.1889579 Z" id="Line" stroke="#31546A" fill="#4A4A4A" stroke-linecap="square" mask="url(#mask-2)"></path>
            </g>
        </g>
    </g>
</svg>