<?xml version="1.0" encoding="UTF-8"?>
<svg width="15px" height="21px" viewBox="0 0 15 21" version="1.1" xmlns="http://www.w3.org/2000/svg" xmlns:xlink="http://www.w3.org/1999/xlink">
    <!-- Generator: Sketch 45.1 (43504) - http://www.bohemiancoding.com/sketch -->
    <title>noun_920097_cc</title>
    <desc>Created with Sketch.</desc>
    <defs></defs>
    <g id="Page-1" stroke="none" stroke-width="1" fill="none" fill-rule="evenodd">
        <g id="Communication" transform="translate(-326.000000, -161.000000)" stroke="#000000">
            <g id="noun_920097_cc" transform="translate(327.000000, 162.000000)">
                <g id="Group">
                    <path d="M12.6906162,9.56677221 L11.1286942,9.56677221 C11.1286942,12.1546493 9.03080531,14.2525382 6.44292822,14.2525382 C3.85505113,14.2525382 1.75716224,12.1546493 1.75716224,9.56677221 L0.195240249,9.56677221 C0.20623872,12.4066982 2.13123356,14.8819208 4.88100623,15.5918863 L4.88100623,15.8144602 C4.88100623,16.6770859 4.18170993,17.3763822 3.31908423,17.3763822 L3.31908423,18.9383042 L9.56677221,18.9383042 L9.56677221,17.3763822 C8.70414651,17.3763822 8.00485021,16.6770859 8.00485021,15.8144602 L8.00485021,15.5918863 C10.7546229,14.8819208 12.6796177,12.4066982 12.6906162,9.56677221 Z" id="Shape"></path>
                    <path d="M6.44292822,0.195240249 C4.71767683,0.195240249 3.31908423,1.59383284 3.31908423,3.31908423 L3.31908423,9.56677221 C3.31908423,11.2920236 4.71767683,12.6906162 6.44292822,12.6906162 C8.16817961,12.6906162 9.56677221,11.2920236 9.56677221,9.56677221 L9.56677221,3.31908423 C9.56677221,1.59383284 8.16817961,0.195240249 6.44292822,0.195240249 Z" id="Shape"></path>
                </g>
            </g>
        </g>
    </g>
</svg>